# Blender v2.79 (sub 0) OBJ File: 'testsolis2.blend'
# www.blender.org
mtllib solis_crystals.mtl
o Cylinder.027_Cylinder.028
v 0.443253 -0.056413 0.755651
v 0.583406 0.649409 0.827311
v 0.344992 -0.008648 0.735232
v 0.487430 0.672580 0.790230
v 0.339876 0.019887 0.634924
v 0.478550 0.683475 0.694953
v 0.433874 -0.004097 0.571754
v 0.565646 0.671199 0.636756
v 0.516895 -0.050242 0.611061
v 0.661621 0.648028 0.673837
v 0.521159 -0.074022 0.694650
v 0.670501 0.637133 0.769114
vn -0.2280 -0.0534 0.9722
vn -0.9751 0.1954 0.1053
vn -0.5163 0.1813 -0.8370
vn 0.4249 -0.0067 -0.9052
vn 0.1996 0.9755 0.0929
vn 0.9754 -0.1939 -0.1049
vn 0.5746 -0.2037 0.7927
vn -0.3852 -0.8926 -0.2343
vn -0.3604 0.0000 0.9328
vn -0.9746 0.1934 0.1130
vn -0.5278 0.1853 -0.8289
vn 0.3642 0.0186 -0.9311
vn 0.9749 -0.1919 -0.1128
vn 0.5271 -0.1888 0.8286
usemtl None

f 2//1 3//1 1//1
f 4//2 5//2 3//2
f 5//3 8//3 7//3
f 7//4 10//4 9//4
f 2//5 10//5 6//5
f 9//6 12//6 11//6
f 12//7 1//7 11//7
f 11//8 5//8 9//8
f 2//9 4//9 3//9
f 4//10 6//10 5//10
f 5//11 6//11 8//11
f 7//12 8//12 10//12
f 6//5 4//5 2//5
f 2//5 12//5 10//5
f 10//5 8//5 6//5
f 9//13 10//13 12//13
f 12//14 2//14 1//14
f 11//8 1//8 5//8
f 1//8 3//8 5//8
f 5//8 7//8 9//8
o Cone.001
v 0.488006 0.671585 0.790992
v 0.478005 0.683157 0.695906
v 0.564561 0.672053 0.636678
v 0.670501 0.637133 0.769114
v 0.591909 0.758118 0.735832
v 0.583406 0.649409 0.827311
v 0.588235 0.703514 0.781342
v 0.483005 0.677371 0.743449
v 0.591909 0.758118 0.735832
v 0.521283 0.677605 0.666292
v 0.534957 0.720638 0.715869
v 0.661621 0.648028 0.673837
v 0.631513 0.697961 0.751728
v 0.539957 0.714852 0.763412
v 0.627840 0.643356 0.797237
v 0.536284 0.660247 0.808922
vn -0.5809 0.7984 0.1583
vn 0.5203 0.5258 0.6729
vn -0.1309 0.6399 0.7572
vn 0.0000 0.0000 1.0000
vn -0.2977 0.7601 -0.5776
vn -0.2006 -0.9754 -0.0918
vn 0.4087 0.6304 -0.6599
vn 0.8380 0.5450 -0.0254
vn 0.8440 0.5360 -0.0174
vn -0.1428 0.6482 0.7479
vn 0.5254 0.5232 0.6710
vn 0.5259 0.5234 0.6704
vn -0.1927 -0.9763 -0.0986
vn -0.1927 -0.9763 -0.0985
vn -0.1994 -0.9739 -0.1088
vn -0.2032 -0.9748 -0.0925
vn -0.1913 -0.9778 -0.0859
usemtl None

f 13//15 26//15 20//15
f 16//16 25//16 27//16
f 13//17 28//17 26//17
f 17//18 25//18 21//18
f 14//19 23//19 22//19
f 22//20 24//20 27//20
f 22//19 21//19 15//19
f 22//19 23//19 21//19
f 23//18 17//18 21//18
f 21//21 24//21 15//21
f 21//22 25//22 24//22
f 25//23 16//23 24//23
f 26//17 19//17 17//17
f 26//17 28//17 19//17
f 28//24 18//24 19//24
f 27//25 19//25 18//25
f 27//26 25//26 19//26
f 25//26 17//26 19//26
f 20//15 23//15 14//15
f 20//15 26//15 23//15
f 26//15 17//15 23//15
f 28//27 13//27 20//27
f 20//28 14//28 22//28
f 22//29 15//29 24//29
f 24//30 16//30 27//30
f 27//31 18//31 28//31
f 28//27 20//27 27//27
f 20//28 22//28 27//28
o Cylinder.029_Cylinder.030
v 0.430330 -0.092793 0.212778
v 0.443235 0.080000 0.200415
v 0.714366 -0.086800 0.320755
v 0.703043 0.080000 0.350415
v 0.711858 -0.082620 0.641391
v 0.703043 0.080000 0.650415
v 0.425733 -0.085131 0.800609
v 0.443235 0.080000 0.800415
v 0.189594 -0.091054 0.639376
v 0.183427 0.080000 0.650415
v 0.191683 -0.094537 0.372180
v 0.183427 0.080000 0.350415
vn 0.3555 -0.0931 -0.9300
vn 0.9978 0.0665 0.0069
vn 0.4860 -0.0505 0.8725
vn -0.5611 -0.0734 0.8245
vn 0.0000 1.0000 0.0000
vn -0.9988 -0.0481 -0.0072
vn -0.5501 -0.1289 -0.8251
vn 0.0161 -0.9998 0.0132
vn 0.4914 0.1847 -0.8511
vn 0.9985 0.0541 0.0000
vn 0.4999 -0.0210 0.8658
vn -0.4993 0.0539 0.8648
vn -0.9994 -0.0360 0.0000
vn -0.4998 -0.0246 -0.8658
usemtl mythicstone

f 30//32 31//32 29//32
f 32//33 33//33 31//33
f 33//34 36//34 35//34
f 35//35 38//35 37//35
f 30//36 38//36 34//36
f 37//37 40//37 39//37
f 40//38 29//38 39//38
f 39//39 33//39 37//39
f 30//40 32//40 31//40
f 32//41 34//41 33//41
f 33//42 34//42 36//42
f 35//43 36//43 38//43
f 34//36 32//36 30//36
f 30//36 40//36 38//36
f 38//36 36//36 34//36
f 37//44 38//44 40//44
f 40//45 30//45 29//45
f 39//39 29//39 33//39
f 29//39 31//39 33//39
f 33//39 35//39 37//39
o Cylinder.000_Cylinder.003
v 0.540591 -0.051139 0.440366
v 0.359514 0.555770 0.300601
v 0.446603 -0.061925 0.408950
v 0.279463 0.523333 0.262042
v 0.445007 -0.067705 0.315497
v 0.281244 0.503976 0.177881
v 0.537665 -0.061735 0.269036
v 0.363077 0.517057 0.132279
v 0.616343 -0.051462 0.315983
v 0.443128 0.549495 0.170838
v 0.617673 -0.046646 0.393860
v 0.441347 0.568851 0.254999
vn -0.3270 0.1184 0.9376
vn -0.9632 -0.2668 0.0330
vn -0.4072 -0.3245 -0.8537
vn 0.5171 -0.0572 -0.8540
vn -0.2729 0.9363 -0.2211
vn 0.9628 0.2684 -0.0330
vn 0.4755 0.3210 0.8191
vn 0.0940 -0.9938 0.0599
vn -0.4615 0.0897 0.8826
vn -0.9631 -0.2661 0.0408
vn -0.4204 -0.3244 -0.8474
vn 0.4563 -0.0719 -0.8869
vn 0.9627 0.2675 -0.0412
vn 0.4213 0.3210 0.8482
usemtl None

f 42//46 43//46 41//46
f 44//47 45//47 43//47
f 45//48 48//48 47//48
f 47//49 50//49 49//49
f 42//50 50//50 46//50
f 49//51 52//51 51//51
f 52//52 41//52 51//52
f 51//53 45//53 49//53
f 42//54 44//54 43//54
f 44//55 46//55 45//55
f 45//56 46//56 48//56
f 47//57 48//57 50//57
f 46//50 44//50 42//50
f 42//50 52//50 50//50
f 50//50 48//50 46//50
f 49//58 50//58 52//58
f 52//59 42//59 41//59
f 51//53 41//53 45//53
f 41//53 43//53 45//53
f 45//53 47//53 49//53
o Cone.000_Cone.003
v 0.280210 0.523019 0.262976
v 0.280808 0.503745 0.178780
v 0.361889 0.517219 0.131965
v 0.441347 0.568851 0.254999
v 0.335436 0.618127 0.191848
v 0.359514 0.555770 0.300601
v 0.348064 0.586948 0.246103
v 0.280509 0.513382 0.220878
v 0.335436 0.618127 0.191848
v 0.321348 0.510482 0.155372
v 0.308122 0.560936 0.185314
v 0.443128 0.549495 0.170838
v 0.388604 0.593685 0.222695
v 0.307823 0.570573 0.227412
v 0.401232 0.562506 0.276950
v 0.320451 0.539394 0.281667
vn -0.8924 0.4384 -0.1067
vn 0.1210 0.8726 0.4733
vn -0.5172 0.6845 0.5138
vn 0.0000 -1.0000 0.0000
vn -0.5123 0.3350 -0.7908
vn 0.2718 -0.9364 0.2221
vn 0.9388 -0.3445 0.0000
vn 0.1812 0.5366 -0.8242
vn 0.5002 0.8441 -0.1933
vn 0.5082 0.8416 -0.1828
vn -0.5299 0.6833 0.5023
vn 0.1269 0.8722 0.4723
vn 0.1274 0.8725 0.4718
vn 0.2802 -0.9353 0.2161
vn 0.2748 -0.9393 0.2056
vn 0.2693 -0.9373 0.2213
vn 0.2801 -0.9324 0.2285
usemtl None

f 53//60 66//60 60//60
f 56//61 65//61 67//61
f 53//62 68//62 66//62
f 57//63 65//63 61//63
f 54//64 63//64 62//64
f 62//65 64//65 67//65
f 62//64 61//64 55//64
f 62//64 63//64 61//64
f 63//66 57//66 61//66
f 61//67 64//67 55//67
f 61//68 65//68 64//68
f 65//69 56//69 64//69
f 66//62 59//62 57//62
f 66//62 68//62 59//62
f 68//70 58//70 59//70
f 67//71 59//71 58//71
f 67//72 65//72 59//72
f 65//72 57//72 59//72
f 60//60 63//60 54//60
f 60//60 66//60 63//60
f 66//60 57//60 63//60
f 68//73 53//73 60//73
f 60//73 54//73 62//73
f 62//74 55//74 64//74
f 64//75 56//75 67//75
f 67//76 58//76 68//76
f 68//73 60//73 67//73
f 60//73 62//73 67//73
o Cylinder.001_Cylinder.004
v 0.564892 -0.092482 0.453044
v 0.696668 0.675623 0.619084
v 0.471557 -0.035372 0.398040
v 0.611460 0.706366 0.546291
v 0.504228 0.000885 0.293858
v 0.638021 0.723117 0.444926
v 0.624788 -0.026011 0.262043
v 0.749790 0.709125 0.416354
v 0.695307 -0.081660 0.331031
v 0.834998 0.678382 0.489147
v 0.668081 -0.111874 0.417850
v 0.808437 0.661631 0.590512
vn -0.5447 -0.0869 0.8341
vn -0.9496 0.2231 -0.2201
vn -0.1990 0.2336 -0.9517
vn 0.7062 0.0175 -0.7078
vn 0.1729 0.9635 0.2045
vn 0.9498 -0.2216 0.2207
vn 0.2686 -0.2560 0.9286
vn -0.2982 -0.8686 -0.3958
vn -0.6550 -0.0274 0.7551
vn -0.9518 0.2209 -0.2129
vn -0.2125 0.2376 -0.9478
vn 0.6584 0.0458 -0.7513
vn 0.9521 -0.2193 0.2132
vn 0.2119 -0.2411 0.9471
usemtl None

f 70//77 71//77 69//77
f 72//78 73//78 71//78
f 73//79 76//79 75//79
f 75//80 78//80 77//80
f 70//81 78//81 74//81
f 77//82 80//82 79//82
f 80//83 69//83 79//83
f 79//84 73//84 77//84
f 70//85 72//85 71//85
f 72//86 74//86 73//86
f 73//87 74//87 76//87
f 75//88 76//88 78//88
f 74//81 72//81 70//81
f 70//81 80//81 78//81
f 78//81 76//81 74//81
f 77//89 78//89 80//89
f 80//90 70//90 69//90
f 79//84 69//84 73//84
f 69//84 71//84 73//84
f 73//84 75//84 77//84
o Cone.002_Cone.004
v 0.611753 0.705214 0.547238
v 0.637094 0.722742 0.445692
v 0.748711 0.710107 0.415918
v 0.808437 0.661631 0.590512
v 0.741666 0.799179 0.533620
v 0.696668 0.675623 0.619084
v 0.719847 0.737115 0.576315
v 0.624424 0.713978 0.496465
v 0.741666 0.799179 0.533620
v 0.692902 0.716425 0.430805
v 0.689380 0.760961 0.489656
v 0.834998 0.678382 0.489147
v 0.775656 0.730797 0.561427
v 0.676710 0.752197 0.540429
v 0.753837 0.668733 0.604122
v 0.654891 0.690132 0.583124
vn -0.5865 0.8099 -0.0066
vn 0.2705 0.4793 0.8349
vn -0.3688 0.6113 0.7002
vn 0.0000 0.0000 1.0000
vn -0.0715 0.7933 -0.6046
vn -0.1742 -0.9634 -0.2038
vn 0.2883 0.0000 -0.9576
vn 0.6188 0.6438 -0.4502
vn 0.8063 0.5174 0.2868
vn 0.8090 0.5079 0.2959
vn -0.3766 0.6204 0.6879
vn 0.2759 0.4766 0.8347
vn 0.2766 0.4768 0.8344
vn -0.1645 -0.9643 -0.2075
vn -0.1673 -0.9612 -0.2193
vn -0.1764 -0.9627 -0.2053
vn -0.1676 -0.9663 -0.1953
usemtl None

f 81//91 94//91 88//91
f 84//92 93//92 95//92
f 81//93 96//93 94//93
f 85//94 93//94 89//94
f 82//95 91//95 90//95
f 90//96 92//96 95//96
f 90//95 89//95 83//95
f 90//95 91//95 89//95
f 91//97 85//97 89//97
f 89//98 92//98 83//98
f 89//99 93//99 92//99
f 93//100 84//100 92//100
f 94//93 87//93 85//93
f 94//93 96//93 87//93
f 96//101 86//101 87//101
f 95//102 87//102 86//102
f 95//103 93//103 87//103
f 93//103 85//103 87//103
f 88//91 91//91 82//91
f 88//91 94//91 91//91
f 94//91 85//91 91//91
f 96//104 81//104 88//104
f 88//104 82//104 90//104
f 90//105 83//105 92//105
f 92//106 84//106 95//106
f 95//107 86//107 96//107
f 96//104 88//104 95//104
f 88//104 90//104 95//104
o Cylinder.002_Cylinder.005
v 0.383996 -0.024668 0.803840
v 0.369766 0.654990 0.726788
v 0.291014 -0.007496 0.757834
v 0.286792 0.647354 0.671899
v 0.302768 -0.002239 0.659896
v 0.297207 0.636876 0.581990
v 0.405545 -0.015031 0.624286
v 0.390594 0.634034 0.546971
v 0.480418 -0.030508 0.684388
v 0.473568 0.641669 0.601860
v 0.470623 -0.034889 0.766004
v 0.463153 0.652147 0.691769
vn -0.4277 0.0930 0.8991
vn -0.9925 -0.0222 -0.1203
vn -0.3382 -0.1190 -0.9335
vn 0.6120 -0.0902 -0.7857
vn -0.0138 0.9930 -0.1173
vn 0.9924 0.0238 0.1204
vn 0.4083 0.1025 0.9071
vn -0.1473 -0.9866 -0.0706
vn -0.5554 0.1047 0.8250
vn -0.9934 -0.0224 -0.1125
vn -0.3518 -0.1163 -0.9288
vn 0.5552 -0.0858 -0.8273
vn 0.9934 0.0239 0.1123
vn 0.3519 0.1127 0.9292
usemtl None

f 98//108 99//108 97//108
f 100//109 101//109 99//109
f 101//110 104//110 103//110
f 103//111 106//111 105//111
f 98//112 106//112 102//112
f 105//113 108//113 107//113
f 108//114 97//114 107//114
f 107//115 101//115 105//115
f 98//116 100//116 99//116
f 100//117 102//117 101//117
f 101//118 102//118 104//118
f 103//119 104//119 106//119
f 102//112 100//112 98//112
f 98//112 108//112 106//112
f 106//112 104//112 102//112
f 105//120 106//120 108//120
f 108//121 98//121 97//121
f 107//115 97//115 101//115
f 97//115 99//115 101//115
f 101//115 103//115 105//115
o Cone.003_Cone.005
v 0.287326 0.646734 0.672915
v 0.296566 0.636652 0.582833
v 0.389478 0.634544 0.546520
v 0.463153 0.652147 0.691769
v 0.377676 0.737068 0.620333
v 0.369766 0.654990 0.726788
v 0.374337 0.695888 0.673509
v 0.291946 0.641693 0.627874
v 0.377676 0.737068 0.620333
v 0.343022 0.635598 0.564676
v 0.337121 0.686860 0.601583
v 0.473568 0.641669 0.601860
v 0.420793 0.694835 0.655352
v 0.332501 0.691901 0.646624
v 0.417454 0.653655 0.708528
v 0.329162 0.650721 0.699799
vn -0.7412 0.6545 -0.1493
vn 0.2462 0.7588 0.6031
vn -0.4168 0.7312 0.5401
vn 0.0000 -1.0000 0.0000
vn -0.2969 0.5352 -0.7908
vn 0.0125 -0.9929 0.1182
vn 0.9185 -0.1541 -0.3642
vn 0.4212 0.5614 -0.7123
vn 0.7042 0.7099 -0.0108
vn 0.7098 0.7044 0.0001
vn -0.4276 0.7344 0.5271
vn 0.2520 0.7571 0.6028
vn 0.2526 0.7573 0.6023
vn 0.0218 -0.9933 0.1134
vn 0.0172 -0.9947 0.1018
vn 0.0101 -0.9931 0.1169
vn 0.0205 -0.9918 0.1260
usemtl None

f 109//122 122//122 116//122
f 112//123 121//123 123//123
f 109//124 124//124 122//124
f 113//125 121//125 117//125
f 110//126 119//126 118//126
f 118//127 120//127 123//127
f 118//126 117//126 111//126
f 118//126 119//126 117//126
f 119//128 113//128 117//128
f 117//129 120//129 111//129
f 117//130 121//130 120//130
f 121//131 112//131 120//131
f 122//124 115//124 113//124
f 122//124 124//124 115//124
f 124//132 114//132 115//132
f 123//133 115//133 114//133
f 123//134 121//134 115//134
f 121//134 113//134 115//134
f 116//122 119//122 110//122
f 116//122 122//122 119//122
f 122//122 113//122 119//122
f 124//135 109//135 116//135
f 116//135 110//135 118//135
f 118//136 111//136 120//136
f 120//137 112//137 123//137
f 123//138 114//138 124//138
f 124//135 116//135 123//135
f 116//135 118//135 123//135
o Cylinder.003_Cylinder.006
v 0.311656 -0.036046 0.528449
v 0.187219 0.580769 0.685199
v 0.215229 -0.037800 0.553595
v 0.094926 0.560978 0.691075
v 0.162907 -0.013651 0.479801
v 0.048132 0.569362 0.618976
v 0.215733 0.008228 0.393159
v 0.093630 0.597537 0.541000
v 0.307715 0.004324 0.388602
v 0.185923 0.617329 0.535124
v 0.351317 -0.015800 0.450098
v 0.232717 0.608945 0.607224
vn 0.2510 -0.1906 0.9491
vn -0.8241 -0.2788 0.4931
vn -0.8481 -0.0433 -0.5280
vn -0.0387 0.2250 -0.9736
vn -0.1896 0.9536 0.2339
vn 0.8240 0.2803 -0.4925
vn 0.8855 0.0520 0.4617
vn -0.0544 -0.9598 -0.2755
vn 0.1054 -0.2024 0.9736
vn -0.8197 -0.2806 0.4994
vn -0.8556 -0.0454 -0.5156
vn -0.1090 0.2206 -0.9693
vn 0.8194 0.2821 -0.4990
vn 0.8563 0.0419 0.5148
usemtl None

f 126//139 127//139 125//139
f 128//140 129//140 127//140
f 129//141 132//141 131//141
f 131//142 134//142 133//142
f 126//143 134//143 130//143
f 133//144 136//144 135//144
f 136//145 125//145 135//145
f 135//146 129//146 133//146
f 126//147 128//147 127//147
f 128//148 130//148 129//148
f 129//149 130//149 132//149
f 131//150 132//150 134//150
f 130//143 128//143 126//143
f 126//143 136//143 134//143
f 134//143 132//143 130//143
f 133//151 134//151 136//151
f 136//152 126//152 125//152
f 135//146 125//146 129//146
f 125//146 127//146 129//146
f 129//146 131//146 133//146
o Cone.004_Cone.006
v 0.095993 0.560396 0.691303
v 0.048214 0.568850 0.619861
v 0.092505 0.597772 0.541464
v 0.232717 0.608945 0.607224
v 0.119353 0.674010 0.630516
v 0.187219 0.580769 0.685199
v 0.153708 0.627437 0.657432
v 0.072104 0.564623 0.655582
v 0.119353 0.674010 0.630516
v 0.070360 0.583311 0.580662
v 0.083784 0.621430 0.625188
v 0.185923 0.617329 0.535124
v 0.175854 0.641897 0.618234
v 0.107673 0.617203 0.660909
v 0.210209 0.595324 0.645150
v 0.142028 0.570630 0.687826
vn -0.7237 0.4353 0.5355
vn 0.4979 0.6791 0.5394
vn -0.0399 0.4777 0.8776
vn 0.0000 0.0000 1.0000
vn -0.7924 0.5604 -0.2409
vn 0.1892 -0.9540 -0.2326
vn -0.2027 0.7732 -0.6009
vn 0.4502 0.8696 -0.2025
vn 0.4621 0.8641 -0.1994
vn -0.0568 0.4801 0.8754
vn 0.5023 0.6791 0.5352
vn 0.5024 0.6796 0.5346
vn 0.1931 -0.9509 -0.2417
vn 0.1824 -0.9514 -0.2480
vn 0.1866 -0.9546 -0.2321
vn 0.2002 -0.9521 -0.2311
usemtl None

f 137//153 150//153 144//153
f 140//154 149//154 151//154
f 137//155 152//155 150//155
f 141//156 149//156 145//156
f 138//157 147//157 146//157
f 146//158 148//158 151//158
f 146//157 145//157 139//157
f 146//157 147//157 145//157
f 147//156 141//156 145//156
f 145//159 148//159 139//159
f 145//160 149//160 148//160
f 149//161 140//161 148//161
f 150//155 143//155 141//155
f 150//155 152//155 143//155
f 152//162 142//162 143//162
f 151//163 143//163 142//163
f 151//164 149//164 143//164
f 149//164 141//164 143//164
f 144//153 147//153 138//153
f 144//153 150//153 147//153
f 150//153 141//153 147//153
f 152//165 137//165 144//165
f 144//165 138//165 146//165
f 146//166 139//166 148//166
f 148//167 140//167 151//167
f 151//168 142//168 152//168
f 152//165 144//165 151//165
f 144//165 146//165 151//165
o Cylinder.004_Cylinder.007
v 0.446285 0.072805 0.481086
v 0.248202 0.532147 0.401213
v 0.370284 0.058270 0.472461
v 0.182994 0.501462 0.384954
v 0.354269 0.052072 0.401366
v 0.171896 0.485055 0.320464
v 0.416924 0.061442 0.350744
v 0.226007 0.499331 0.272233
v 0.483817 0.074931 0.373731
v 0.291216 0.530015 0.288492
v 0.497163 0.080096 0.432977
v 0.302313 0.546423 0.352982
vn -0.1335 0.1136 0.9845
vn -0.9111 -0.3387 0.2348
vn -0.5486 -0.3733 -0.7481
vn 0.3313 -0.0364 -0.9428
vn -0.3861 0.9077 -0.1645
vn 0.9106 0.3402 -0.2348
vn 0.6083 0.3742 0.7000
vn 0.1828 -0.9821 0.0444
vn -0.2738 0.0737 0.9590
vn -0.9095 -0.3378 0.2424
vn -0.5601 -0.3740 -0.7391
vn 0.2664 -0.0564 -0.9622
vn 0.9089 0.3392 -0.2427
vn 0.5615 0.3708 0.7397
usemtl None

f 154//169 155//169 153//169
f 156//170 157//170 155//170
f 157//171 160//171 159//171
f 159//172 162//172 161//172
f 154//173 162//173 158//173
f 161//174 164//174 163//174
f 164//175 153//175 163//175
f 163//176 157//176 161//176
f 154//177 156//177 155//177
f 156//178 158//178 157//178
f 157//179 158//179 160//179
f 159//180 160//180 162//180
f 158//173 156//173 154//173
f 154//173 164//173 162//173
f 162//173 160//173 158//173
f 161//181 162//181 164//181
f 164//182 154//182 153//182
f 163//176 153//176 157//176
f 153//176 155//176 157//176
f 157//176 159//176 161//176
o Cone.005_Cone.007
v 0.183734 0.501279 0.385547
v 0.171725 0.484864 0.321223
v 0.225041 0.499381 0.272186
v 0.302313 0.546423 0.352982
v 0.208371 0.577397 0.321800
v 0.248202 0.532147 0.401213
v 0.228715 0.554804 0.361317
v 0.177729 0.493071 0.353385
v 0.208371 0.577397 0.321800
v 0.198383 0.492123 0.296704
v 0.190048 0.531131 0.321511
v 0.291216 0.530015 0.288492
v 0.255374 0.562063 0.336799
v 0.196053 0.539338 0.353673
v 0.275718 0.539470 0.376317
v 0.216397 0.516745 0.393191
vn -0.9270 0.3666 0.0795
vn 0.1472 0.8894 0.4327
vn -0.4517 0.6542 0.6066
vn -0.7071 -0.7071 0.0000
vn -0.6902 0.2775 -0.6683
vn 0.3852 -0.9078 0.1657
vn 0.9374 -0.2672 -0.2234
vn -0.0370 0.5306 -0.8468
vn 0.3807 0.8753 -0.2982
vn 0.3909 0.8737 -0.2896
vn -0.4664 0.6518 0.5980
vn 0.1528 0.8895 0.4305
vn 0.1531 0.8898 0.4299
vn 0.3921 -0.9062 0.1581
vn 0.3850 -0.9108 0.1489
vn 0.3828 -0.9089 0.1654
vn 0.3944 -0.9030 0.1702
usemtl None

f 165//183 178//183 172//183
f 168//184 177//184 179//184
f 165//185 180//185 178//185
f 169//186 177//186 173//186
f 166//187 175//187 174//187
f 174//188 176//188 179//188
f 174//187 173//187 167//187
f 174//187 175//187 173//187
f 175//189 169//189 173//189
f 173//190 176//190 167//190
f 173//191 177//191 176//191
f 177//192 168//192 176//192
f 178//185 171//185 169//185
f 178//185 180//185 171//185
f 180//193 170//193 171//193
f 179//194 171//194 170//194
f 179//195 177//195 171//195
f 177//195 169//195 171//195
f 172//183 175//183 166//183
f 172//183 178//183 175//183
f 178//183 169//183 175//183
f 180//196 165//196 172//196
f 172//196 166//196 174//196
f 174//197 167//197 176//197
f 176//198 168//198 179//198
f 179//199 170//199 180//199
f 180//196 172//196 179//196
f 172//196 174//196 179//196
o Cylinder.005_Cylinder.008
v 0.683373 0.072558 0.544468
v 0.783597 0.438699 0.674755
v 0.728430 0.061321 0.585072
v 0.817892 0.414915 0.715794
v 0.706309 0.058635 0.638564
v 0.795410 0.403940 0.763028
v 0.642818 0.067634 0.642537
v 0.738633 0.416749 0.769222
v 0.610187 0.077595 0.596812
v 0.704338 0.440533 0.728182
v 0.628621 0.079833 0.552236
v 0.726820 0.451508 0.680949
vn 0.6778 0.0747 -0.7314
vn 0.8725 -0.3477 0.3433
vn 0.0101 -0.3435 0.9391
vn -0.8139 0.0008 0.5810
vn 0.2418 0.9135 0.3273
vn -0.8720 0.3492 -0.3431
vn -0.0865 0.3463 -0.9341
vn -0.1462 -0.9831 -0.1098
vn 0.7770 0.0358 -0.6285
vn 0.8755 -0.3471 0.3361
vn 0.0246 -0.3446 0.9384
vn -0.7724 -0.0184 0.6348
vn -0.8752 0.3485 -0.3356
vn -0.0255 0.3413 -0.9396
usemtl None

f 182//200 183//200 181//200
f 184//201 185//201 183//201
f 185//202 188//202 187//202
f 187//203 190//203 189//203
f 182//204 190//204 186//204
f 189//205 192//205 191//205
f 192//206 181//206 191//206
f 191//207 185//207 189//207
f 182//208 184//208 183//208
f 184//209 186//209 185//209
f 185//210 186//210 188//210
f 187//211 188//211 190//211
f 186//204 184//204 182//204
f 182//204 192//204 190//204
f 190//204 188//204 186//204
f 189//212 190//212 192//212
f 192//213 182//213 181//213
f 191//207 181//207 185//207
f 181//207 183//207 185//207
f 185//207 187//207 189//207
o Cone.006_Cone.008
v 0.817679 0.414751 0.715077
v 0.795863 0.403765 0.762620
v 0.739238 0.416790 0.769691
v 0.726820 0.451508 0.680949
v 0.774043 0.477003 0.743175
v 0.783597 0.438699 0.674755
v 0.778457 0.457882 0.708891
v 0.806771 0.409258 0.738848
v 0.774043 0.477003 0.743175
v 0.767550 0.410278 0.766155
v 0.784953 0.440384 0.752897
v 0.704338 0.440533 0.728182
v 0.750144 0.464395 0.712426
v 0.795861 0.445877 0.729126
v 0.754557 0.445274 0.678142
v 0.800275 0.426757 0.694842
vn 0.8122 0.3632 0.4566
vn 0.1486 0.8717 -0.4670
vn 0.7331 0.6298 -0.2569
vn 0.0000 -1.0000 0.0000
vn 0.1865 0.3036 0.9343
vn -0.2404 -0.9137 -0.3278
vn -0.9744 -0.2247 0.0000
vn -0.4446 0.5636 0.6962
vn -0.4630 0.8864 -0.0036
vn -0.4664 0.8844 -0.0165
vn 0.7401 0.6277 -0.2413
vn 0.1428 0.8719 -0.4685
vn 0.1421 0.8722 -0.4681
vn -0.2504 -0.9118 -0.3256
vn -0.2499 -0.9160 -0.3138
vn -0.2386 -0.9147 -0.3261
vn -0.2451 -0.9091 -0.3369
usemtl None

f 193//214 206//214 200//214
f 196//215 205//215 207//215
f 193//216 208//216 206//216
f 197//217 205//217 201//217
f 194//218 203//218 202//218
f 202//219 204//219 207//219
f 202//218 201//218 195//218
f 202//218 203//218 201//218
f 203//220 197//220 201//220
f 201//221 204//221 195//221
f 201//222 205//222 204//222
f 205//223 196//223 204//223
f 206//216 199//216 197//216
f 206//216 208//216 199//216
f 208//224 198//224 199//224
f 207//225 199//225 198//225
f 207//226 205//226 199//226
f 205//226 197//226 199//226
f 200//214 203//214 194//214
f 200//214 206//214 203//214
f 206//214 197//214 203//214
f 208//227 193//227 200//227
f 200//227 194//227 202//227
f 202//228 195//228 204//228
f 204//229 196//229 207//229
f 207//230 198//230 208//230
f 208//227 200//227 207//227
f 200//227 202//227 207//227
o Cylinder.006_Cylinder.000
v 0.616714 -0.070247 0.585886
v 0.249054 0.787721 0.603636
v 0.475697 -0.094979 0.595468
v 0.124073 0.734874 0.592438
v 0.420607 -0.092273 0.472473
v 0.079846 0.717556 0.477534
v 0.515716 -0.065285 0.360396
v 0.160600 0.753086 0.373828
v 0.645472 -0.045276 0.379743
v 0.285581 0.805933 0.385026
v 0.691380 -0.047532 0.482238
v 0.329808 0.823251 0.499930
vn 0.0664 0.0078 0.9978
vn -0.8542 -0.3606 0.3747
vn -0.6940 -0.2903 -0.6588
vn 0.1375 0.0643 -0.9884
vn -0.3903 0.9206 0.0115
vn 0.8537 0.3621 -0.3744
vn 0.7430 0.2963 0.6002
vn 0.1656 -0.9815 -0.0958
vn -0.0770 -0.0290 0.9966
vn -0.8510 -0.3605 0.3819
vn -0.7036 -0.2920 -0.6479
vn 0.0696 0.0466 -0.9965
vn 0.8504 0.3619 -0.3819
vn 0.7050 0.2887 0.6478
usemtl None

f 210//231 211//231 209//231
f 212//232 213//232 211//232
f 213//233 216//233 215//233
f 215//234 218//234 217//234
f 210//235 218//235 214//235
f 217//236 220//236 219//236
f 220//237 209//237 219//237
f 219//238 213//238 217//238
f 210//239 212//239 211//239
f 212//240 214//240 213//240
f 213//241 214//241 216//241
f 215//242 216//242 218//242
f 214//235 212//235 210//235
f 210//235 220//235 218//235
f 218//235 216//235 214//235
f 217//243 218//243 220//243
f 220//244 210//244 209//244
f 219//238 209//238 213//238
f 209//238 211//238 213//238
f 213//238 215//238 217//238
o Cone.007_Cone.000
v 0.125618 0.734418 0.593196
v 0.079805 0.717058 0.478923
v 0.158841 0.753190 0.374108
v 0.329808 0.823251 0.499930
v 0.150072 0.886405 0.484356
v 0.249054 0.787721 0.603636
v 0.200270 0.837158 0.543506
v 0.102711 0.725738 0.536059
v 0.150072 0.886405 0.484356
v 0.119323 0.735124 0.426515
v 0.114938 0.801731 0.481639
v 0.285581 0.805933 0.385026
v 0.239788 0.855224 0.491098
v 0.137845 0.810411 0.538776
v 0.289986 0.805978 0.550248
v 0.188043 0.761165 0.597926
vn -0.8844 0.3573 0.3003
vn 0.2499 0.8378 0.4854
vn -0.3079 0.5862 0.7494
vn -0.1223 -0.1681 0.9782
vn -0.8022 0.3484 -0.4848
vn 0.3897 -0.9209 -0.0101
vn 0.9876 -0.1286 -0.0901
vn -0.1916 0.6182 -0.7623
vn 0.3340 0.9016 -0.2748
vn 0.3457 0.8991 -0.2686
vn -0.3241 0.5847 0.7437
vn 0.2551 0.8381 0.4822
vn 0.2552 0.8385 0.4815
vn 0.3950 -0.9185 -0.0188
vn 0.3860 -0.9221 -0.0268
vn 0.3872 -0.9219 -0.0101
vn 0.3996 -0.9166 -0.0070
usemtl None

f 221//245 234//245 228//245
f 224//246 233//246 235//246
f 221//247 236//247 234//247
f 225//248 233//248 229//248
f 222//249 231//249 230//249
f 230//250 232//250 235//250
f 230//249 229//249 223//249
f 230//249 231//249 229//249
f 231//251 225//251 229//251
f 229//252 232//252 223//252
f 229//253 233//253 232//253
f 233//254 224//254 232//254
f 234//247 227//247 225//247
f 234//247 236//247 227//247
f 236//255 226//255 227//255
f 235//256 227//256 226//256
f 235//257 233//257 227//257
f 233//257 225//257 227//257
f 228//245 231//245 222//245
f 228//245 234//245 231//245
f 234//245 225//245 231//245
f 236//258 221//258 228//258
f 228//258 222//258 230//258
f 230//259 223//259 232//259
f 232//260 224//260 235//260
f 235//261 226//261 236//261
f 236//258 228//258 235//258
f 228//258 230//258 235//258
