# Blender v2.79 (sub 0) OBJ File: 'testsolis.blend'
# www.blender.org
mtllib solis_crystals.mtl
o Cylinder.027_Cylinder.028
v 0.528691 -0.080663 0.663529
v 0.438222 0.767628 0.932337
v 0.392439 -0.062487 0.665476
v 0.310357 0.762452 0.907039
v 0.354003 -0.009276 0.554258
v 0.275354 0.792805 0.797297
v 0.458226 0.016890 0.459629
v 0.368217 0.828333 0.712855
v 0.580311 -0.010081 0.482722
v 0.496083 0.833509 0.738153
v 0.612341 -0.054423 0.575404
v 0.531085 0.803156 0.847895
vn -0.0270 -0.3046 0.9521
vn -0.9538 -0.1679 0.2493
vn -0.6849 0.1468 -0.7137
vn 0.2414 0.3032 -0.9218
vn -0.0966 0.9510 0.2938
vn 0.9537 0.1693 -0.2486
vn 0.7386 -0.1396 0.6595
vn -0.1271 -0.9111 -0.3920
vn -0.1742 -0.2927 0.9402
vn -0.9514 -0.1709 0.2562
vn -0.6955 0.1451 -0.7038
vn 0.1724 0.3108 -0.9347
vn 0.9513 0.1724 -0.2557
vn 0.6958 -0.1485 0.7027
usemtl None

f 2//1 3//1 1//1
f 4//2 5//2 3//2
f 5//3 8//3 7//3
f 7//4 10//4 9//4
f 2//5 10//5 6//5
f 9//6 12//6 11//6
f 12//7 1//7 11//7
f 11//8 5//8 9//8
f 2//9 4//9 3//9
f 4//10 6//10 5//10
f 5//11 6//11 8//11
f 7//12 8//12 10//12
f 6//5 4//5 2//5
f 2//5 12//5 10//5
f 10//5 8//5 6//5
f 9//13 10//13 12//13
f 12//14 2//14 1//14
f 11//8 1//8 5//8
f 1//8 3//8 5//8
f 5//8 7//8 9//8
o Cone.001
v 0.311565 0.761382 0.907592
v 0.275050 0.791997 0.798418
v 0.366621 0.828873 0.713146
v 0.531085 0.803156 0.847894
v 0.386998 0.916078 0.852776
v 0.438222 0.767628 0.932337
v 0.413324 0.841860 0.892135
v 0.293308 0.776690 0.853005
v 0.386998 0.916078 0.852776
v 0.320836 0.810435 0.755782
v 0.331024 0.854038 0.825597
v 0.496083 0.833509 0.738153
v 0.459110 0.860298 0.849499
v 0.349281 0.838730 0.880184
v 0.485436 0.786080 0.888858
v 0.375608 0.764512 0.919543
vn -0.7610 0.5122 0.3982
vn 0.4428 0.5376 0.7176
vn -0.1867 0.4078 0.8938
vn 0.0000 0.0000 1.0000
vn -0.6129 0.7073 -0.3523
vn 0.0958 -0.9514 -0.2927
vn 0.5417 0.0000 -0.8406
vn 0.0734 0.8410 -0.5360
vn 0.6122 0.7906 0.0131
vn 0.6219 0.7829 0.0182
vn -0.2020 0.4132 0.8880
vn 0.4481 0.5373 0.7146
vn 0.4484 0.5377 0.7140
vn 0.1024 -0.9484 -0.3002
vn 0.0936 -0.9465 -0.3088
vn 0.0931 -0.9516 -0.2929
vn 0.1063 -0.9516 -0.2884
usemtl None
f 13//15 26//15 20//15
f 16//16 25//16 27//16
f 13//17 28//17 26//17
f 17//18 25//18 21//18
f 14//19 23//19 22//19
f 22//20 24//20 27//20
f 22//19 21//19 15//19
f 22//19 23//19 21//19
f 23//21 17//21 21//21
f 21//22 24//22 15//22
f 21//23 25//23 24//23
f 25//24 16//24 24//24
f 26//17 19//17 17//17
f 26//17 28//17 19//17
f 28//25 18//25 19//25
f 27//26 19//26 18//26
f 27//27 25//27 19//27
f 25//27 17//27 19//27
f 20//15 23//15 14//15
f 20//15 26//15 23//15
f 26//15 17//15 23//15
f 28//28 13//28 20//28
f 20//28 14//28 22//28
f 22//29 15//29 24//29
f 24//30 16//30 27//30
f 27//31 18//31 28//31
f 28//28 20//28 27//28
f 20//28 22//28 27//28
o Cylinder.029_Cylinder.030
v 0.430330 -0.092793 0.212778
v 0.443235 0.080000 0.200415
v 0.714366 -0.086800 0.320755
v 0.703043 0.080000 0.350415
v 0.711858 -0.082620 0.641391
v 0.703043 0.080000 0.650415
v 0.425733 -0.085131 0.800609
v 0.443235 0.080000 0.800415
v 0.189594 -0.091054 0.639376
v 0.183427 0.080000 0.650415
v 0.191683 -0.094537 0.372180
v 0.183427 0.080000 0.350415
vn 0.3555 -0.0931 -0.9300
vn 0.9978 0.0665 0.0069
vn 0.4860 -0.0505 0.8725
vn -0.5611 -0.0734 0.8245
vn 0.0000 1.0000 0.0000
vn -0.9988 -0.0481 -0.0072
vn -0.5501 -0.1289 -0.8251
vn 0.0161 -0.9998 0.0132
vn 0.4914 0.1847 -0.8511
vn 0.9985 0.0541 0.0000
vn 0.4999 -0.0210 0.8658
vn -0.4993 0.0539 0.8648
vn -0.9994 -0.0360 0.0000
vn -0.4998 -0.0246 -0.8658
usemtl mythicstone
f 30//32 31//32 29//32
f 32//33 33//33 31//33
f 33//34 36//34 35//34
f 35//35 38//35 37//35
f 30//36 38//36 34//36
f 37//37 40//37 39//37
f 40//38 29//38 39//38
f 39//39 33//39 37//39
f 30//40 32//40 31//40
f 32//41 34//41 33//41
f 33//42 34//42 36//42
f 35//43 36//43 38//43
f 34//36 32//36 30//36
f 30//36 40//36 38//36
f 38//36 36//36 34//36
f 37//44 38//44 40//44
f 40//45 30//45 29//45
f 39//39 29//39 33//39
f 29//39 31//39 33//39
f 33//39 35//39 37//39
o Cylinder.000_Cylinder.003
v 0.474127 0.066655 0.312173
v 0.432190 0.432457 0.261015
v 0.418245 0.072118 0.301607
v 0.381073 0.424506 0.244799
v 0.409804 0.072577 0.248604
v 0.373650 0.416623 0.196491
v 0.458653 0.067495 0.215002
v 0.417346 0.416690 0.164399
v 0.507097 0.062840 0.235585
v 0.468463 0.424641 0.180615
v 0.514131 0.062458 0.279754
v 0.475885 0.432524 0.228923
vn -0.1735 0.1169 0.9779
vn -0.9846 -0.0787 0.1561
vn -0.5700 -0.1835 -0.8009
vn 0.3811 -0.0990 -0.9192
vn -0.1073 0.9837 -0.1440
vn 0.9845 0.0803 -0.1561
vn 0.6312 0.1692 0.7570
vn -0.0986 -0.9951 0.0071
vn -0.3169 0.1183 0.9410
vn -0.9833 -0.0785 0.1639
vn -0.5820 -0.1812 -0.7928
vn 0.3149 -0.0995 -0.9439
vn 0.9832 0.0801 -0.1641
vn 0.5823 0.1777 0.7933
usemtl None

f 42//46 43//46 41//46
f 44//47 45//47 43//47
f 45//48 48//48 47//48
f 47//49 50//49 49//49
f 42//50 50//50 46//50
f 49//51 52//51 51//51
f 52//52 41//52 51//52
f 51//53 45//53 49//53
f 42//54 44//54 43//54
f 44//55 46//55 45//55
f 45//56 46//56 48//56
f 47//57 48//57 50//57
f 46//50 44//50 42//50
f 42//50 52//50 50//50
f 50//50 48//50 46//50
f 49//58 50//58 52//58
f 52//59 42//59 41//59
f 51//53 41//53 45//53
f 41//53 43//53 45//53
f 45//53 47//53 49//53
o Cone.000_Cone.003
v 0.381522 0.424213 0.245262
v 0.373448 0.416507 0.197030
v 0.416679 0.416924 0.164319
v 0.475885 0.432524 0.228923
v 0.417872 0.474206 0.202662
v 0.432190 0.432457 0.261015
v 0.425350 0.453270 0.231723
v 0.377485 0.420360 0.221146
v 0.417872 0.474206 0.202662
v 0.395063 0.416716 0.180674
v 0.395660 0.445356 0.199846
v 0.468463 0.424641 0.180615
v 0.446966 0.453479 0.215367
v 0.399697 0.449209 0.223962
v 0.454444 0.432544 0.244427
v 0.407175 0.428274 0.253023
vn -0.7935 0.6075 0.0358
vn 0.3520 0.8001 0.4858
vn -0.3002 0.7357 0.6072
vn -1.0000 0.0000 0.0000
vn -0.5328 0.4784 -0.6981
vn 0.1063 -0.9837 0.1452
vn 0.9373 -0.3486 0.0000
vn 0.1767 0.5450 -0.8196
vn 0.6290 0.7433 -0.2277
vn 0.6377 0.7387 -0.2185
vn -0.3143 0.7377 0.5975
vn 0.3576 0.7987 0.4840
vn 0.3580 0.7989 0.4834
vn 0.1140 -0.9838 0.1381
vn 0.1066 -0.9860 0.1283
vn 0.1037 -0.9840 0.1446
vn 0.1161 -0.9818 0.1506
usemtl None

f 53//60 66//60 60//60
f 56//61 65//61 67//61
f 53//62 68//62 66//62
f 57//63 65//63 61//63
f 54//64 63//64 62//64
f 62//65 64//65 67//65
f 62//64 61//64 55//64
f 62//64 63//64 61//64
f 63//66 57//66 61//66
f 61//67 64//67 55//67
f 61//68 65//68 64//68
f 65//69 56//69 64//69
f 66//62 59//62 57//62
f 66//62 68//62 59//62
f 68//70 58//70 59//70
f 67//71 59//71 58//71
f 67//72 65//72 59//72
f 65//72 57//72 59//72
f 60//60 63//60 54//60
f 60//60 66//60 63//60
f 66//60 57//60 63//60
f 68//73 53//73 60//73
f 60//73 54//73 62//73
f 62//74 55//74 64//74
f 64//75 56//75 67//75
f 67//76 58//76 68//76
f 68//73 60//73 67//73
f 60//73 62//73 67//73
o Cylinder.001_Cylinder.004
v 0.584270 0.041795 0.460071
v 0.795226 0.544650 0.554886
v 0.516053 0.092526 0.456963
v 0.723977 0.578176 0.537121
v 0.508891 0.123601 0.383686
v 0.711852 0.596104 0.466657
v 0.571141 0.098767 0.325730
v 0.770975 0.580505 0.413959
v 0.629580 0.049585 0.344604
v 0.842224 0.546978 0.431724
v 0.635548 0.023689 0.405668
v 0.854349 0.529051 0.502188
vn -0.1391 -0.1268 0.9821
vn -0.9067 0.3491 0.2367
vn -0.5517 0.3661 -0.7494
vn 0.3268 0.0258 -0.9447
vn 0.3861 0.9077 0.1645
vn 0.9074 -0.3477 -0.2361
vn 0.6003 -0.3929 0.6966
vn -0.5657 -0.7776 -0.2745
vn -0.2623 -0.0468 0.9638
vn -0.9059 0.3463 0.2440
vn -0.5614 0.3710 -0.7397
vn 0.2697 0.0641 -0.9608
vn 0.9065 -0.3448 -0.2437
vn 0.5600 -0.3743 0.7391
usemtl None

f 70//77 71//77 69//77
f 72//78 73//78 71//78
f 73//79 76//79 75//79
f 75//80 78//80 77//80
f 70//81 78//81 74//81
f 77//82 80//82 79//82
f 80//83 69//83 79//83
f 79//84 73//84 77//84
f 70//85 72//85 71//85
f 72//86 74//86 73//86
f 73//87 74//87 76//87
f 75//88 76//88 78//88
f 74//81 72//81 70//81
f 70//81 80//81 78//81
f 78//81 76//81 74//81
f 77//89 78//89 80//89
f 80//90 70//90 69//90
f 79//84 69//84 73//84
f 69//84 71//84 73//84
f 73//84 75//84 77//84
o Cone.002_Cone.004
v 0.724322 0.577286 0.537571
v 0.711469 0.595853 0.467403
v 0.770280 0.581296 0.414061
v 0.854349 0.529051 0.502188
v 0.810356 0.633089 0.493105
v 0.795226 0.544650 0.554886
v 0.803171 0.588626 0.523751
v 0.717895 0.586569 0.502487
v 0.810356 0.633089 0.493105
v 0.740874 0.588574 0.440732
v 0.760913 0.614471 0.480254
v 0.842224 0.546978 0.431724
v 0.832576 0.581347 0.497080
v 0.767339 0.605188 0.515338
v 0.825391 0.536883 0.527726
v 0.760154 0.560724 0.545985
vn -0.4037 0.8634 0.3024
vn 0.6717 0.3438 0.6562
vn 0.0644 0.5592 0.8265
vn 0.0000 0.0000 1.0000
vn -0.2050 0.8631 -0.4616
vn -0.3870 -0.9075 -0.1633
vn 0.4535 0.6225 -0.6378
vn 0.9186 0.3892 -0.0690
vn 0.9235 0.3784 -0.0626
vn 0.0535 0.5705 0.8195
vn 0.6760 0.3405 0.6535
vn 0.6765 0.3407 0.6529
vn -0.3800 -0.9090 -0.1709
vn -0.3871 -0.9043 -0.1800
vn -0.3894 -0.9064 -0.1636
vn -0.3778 -0.9122 -0.1587
usemtl None

f 81//91 94//91 88//91
f 84//92 93//92 95//92
f 81//93 96//93 94//93
f 85//94 93//94 89//94
f 82//95 91//95 90//95
f 90//96 92//96 95//96
f 90//95 89//95 83//95
f 90//95 91//95 89//95
f 91//94 85//94 89//94
f 89//97 92//97 83//97
f 89//98 93//98 92//98
f 93//99 84//99 92//99
f 94//93 87//93 85//93
f 94//93 96//93 87//93
f 96//100 86//100 87//100
f 95//101 87//101 86//101
f 95//102 93//102 87//102
f 93//102 85//102 87//102
f 88//91 91//91 82//91
f 88//91 94//91 91//91
f 94//91 85//91 91//91
f 96//103 81//103 88//103
f 88//103 82//103 90//103
f 90//104 83//104 92//104
f 92//105 84//105 95//105
f 95//106 86//106 96//106
f 96//103 88//103 95//103
f 88//103 90//103 95//103
o Cylinder.002_Cylinder.005
v 0.351052 0.047182 0.689401
v 0.179017 0.563829 0.788571
v 0.266298 0.040472 0.686481
v 0.103267 0.542285 0.770857
v 0.240242 0.059694 0.613419
v 0.082139 0.548322 0.700495
v 0.303283 0.082422 0.555454
v 0.136761 0.575903 0.647848
v 0.379702 0.083741 0.574124
v 0.212511 0.597447 0.665562
v 0.401415 0.067723 0.635009
v 0.233639 0.591410 0.735924
vn -0.0184 -0.1944 0.9808
vn -0.9116 -0.3360 0.2367
vn -0.6584 -0.0821 -0.7482
vn 0.2264 0.2416 -0.9436
vn -0.3066 0.9361 0.1724
vn 0.9112 0.3374 -0.2362
vn 0.7125 0.0943 0.6953
vn 0.0854 -0.9556 -0.2819
vn -0.1639 -0.2151 0.9627
vn -0.9091 -0.3376 0.2440
vn -0.6689 -0.0848 -0.7385
vn 0.1581 0.2330 -0.9595
vn 0.9086 0.3391 -0.2437
vn 0.6700 0.0815 0.7378
usemtl None

f 98//107 99//107 97//107
f 100//108 101//108 99//108
f 101//109 104//109 103//109
f 103//110 106//110 105//110
f 98//111 106//111 102//111
f 105//112 108//112 107//112
f 108//113 97//113 107//113
f 107//114 101//114 105//114
f 98//115 100//115 99//115
f 100//116 102//116 101//116
f 101//117 102//117 104//117
f 103//118 104//118 106//118
f 102//111 100//111 98//111
f 98//111 108//111 106//111
f 106//111 104//111 102//111
f 105//119 106//119 108//119
f 108//120 98//120 97//120
f 107//114 97//114 101//114
f 97//114 99//114 101//114
f 101//114 103//114 105//114
o Cone.003_Cone.005
v 0.104114 0.541838 0.771302
v 0.082018 0.547875 0.701238
v 0.135717 0.576039 0.647954
v 0.233639 0.591410 0.735923
v 0.132002 0.640816 0.727496
v 0.179017 0.563829 0.788571
v 0.155956 0.602391 0.757788
v 0.093066 0.544857 0.736270
v 0.132002 0.640816 0.727496
v 0.108868 0.561957 0.674596
v 0.107010 0.594345 0.714367
v 0.212511 0.597447 0.665562
v 0.182805 0.616473 0.731146
v 0.118058 0.591327 0.749399
v 0.206758 0.578047 0.761439
v 0.142011 0.552902 0.779691
vn -0.8715 0.3818 0.3077
vn 0.2811 0.6961 0.6607
vn -0.3174 0.4571 0.8308
vn -0.4203 -0.3415 0.8407
vn -0.7239 0.5180 -0.4557
vn 0.3058 -0.9366 -0.1712
vn 0.9832 -0.1716 -0.0622
vn -0.0703 0.7719 -0.6319
vn 0.4350 0.8982 -0.0636
vn 0.4458 0.8933 -0.0572
vn -0.3331 0.4585 0.8239
vn 0.2865 0.6965 0.6579
vn 0.2867 0.6969 0.6573
vn 0.3120 -0.9331 -0.1788
vn 0.3035 -0.9341 -0.1879
vn 0.3032 -0.9374 -0.1715
vn 0.3158 -0.9341 -0.1666
usemtl None

f 109//121 122//121 116//121
f 112//122 121//122 123//122
f 109//123 124//123 122//123
f 113//124 121//124 117//124
f 110//125 119//125 118//125
f 118//126 120//126 123//126
f 118//125 117//125 111//125
f 118//125 119//125 117//125
f 119//127 113//127 117//127
f 117//128 120//128 111//128
f 117//129 121//129 120//129
f 121//130 112//130 120//130
f 122//123 115//123 113//123
f 122//123 124//123 115//123
f 124//131 114//131 115//131
f 123//132 115//132 114//132
f 123//133 121//133 115//133
f 121//133 113//133 115//133
f 116//121 119//121 110//121
f 116//121 122//121 119//121
f 122//121 113//121 119//121
f 124//134 109//134 116//134
f 116//134 110//134 118//134
f 118//135 111//135 120//135
f 120//136 112//136 123//136
f 123//137 114//137 124//137
f 124//134 116//134 123//134
f 116//134 118//134 123//134
o Cylinder.003_Cylinder.006
v 0.337612 -0.022931 0.591006
v 0.120515 0.584982 0.652862
v 0.238643 -0.033257 0.585345
v 0.032967 0.556205 0.631616
v 0.210309 -0.018240 0.497379
v 0.010615 0.556205 0.548197
v 0.285666 0.004600 0.429735
v 0.075811 0.584982 0.486024
v 0.374437 0.009868 0.454001
v 0.163358 0.613760 0.507270
v 0.398049 -0.002646 0.527306
v 0.185710 0.613760 0.590688
vn -0.0446 -0.1169 0.9921
vn -0.9116 -0.3366 0.2362
vn -0.6334 -0.1555 -0.7581
vn 0.2503 0.1715 -0.9529
vn -0.3304 0.9397 0.0885
vn 0.9111 0.3381 -0.2358
vn 0.6888 0.1647 0.7060
vn 0.1131 -0.9727 -0.2025
vn -0.1890 -0.1422 0.9716
vn -0.9092 -0.3376 0.2436
vn -0.6441 -0.1577 -0.7485
vn 0.1828 0.1602 -0.9700
vn 0.9087 0.3391 -0.2435
vn 0.6453 0.1543 0.7481
usemtl None

f 126//138 127//138 125//138
f 128//139 129//139 127//139
f 129//140 132//140 131//140
f 131//141 134//141 133//141
f 126//142 134//142 130//142
f 133//143 136//143 135//143
f 136//144 125//144 135//144
f 135//145 129//145 133//145
f 126//146 128//146 127//146
f 128//147 130//147 129//147
f 129//148 130//148 132//148
f 131//149 132//149 134//149
f 130//142 128//142 126//142
f 126//142 136//142 134//142
f 134//142 132//142 130//142
f 133//150 134//150 136//150
f 136//151 126//151 125//151
f 135//145 125//145 129//145
f 125//145 127//145 129//145
f 129//145 131//145 133//145
o Cone.004_Cone.006
v 0.033953 0.555747 0.632206
v 0.010457 0.555748 0.549102
v 0.074581 0.585124 0.486099
v 0.185710 0.613760 0.590688
v 0.065857 0.668006 0.572803
v 0.120515 0.584982 0.652862
v 0.093715 0.626563 0.612555
v 0.022205 0.555748 0.590654
v 0.065857 0.668006 0.572803
v 0.042519 0.570436 0.517601
v 0.038157 0.611877 0.560952
v 0.163358 0.613760 0.507269
v 0.125777 0.641251 0.581054
v 0.049905 0.611876 0.602504
v 0.153635 0.599807 0.620806
v 0.077763 0.570433 0.642256
vn -0.8880 0.3852 0.2511
vn 0.2467 0.7521 0.6112
vn -0.3518 0.5140 0.7824
vn 0.0000 0.0156 -0.9999
vn -0.7198 0.4642 -0.5162
vn 0.3296 -0.9401 -0.0873
vn 0.6904 0.0654 -0.7205
vn -0.0663 0.7179 -0.6930
vn 0.4186 0.8999 -0.1221
vn 0.4294 0.8958 -0.1150
vn -0.3673 0.5144 0.7749
vn 0.2522 0.7524 0.6085
vn 0.2524 0.7528 0.6079
vn 0.3359 -0.9371 -0.0950
vn 0.3277 -0.9390 -0.1042
vn 0.3270 -0.9409 -0.0876
vn 0.3394 -0.9370 -0.0827
usemtl None

f 137//152 150//152 144//152
f 140//153 149//153 151//153
f 137//154 152//154 150//154
f 141//155 149//155 145//155
f 138//156 147//156 146//156
f 146//157 148//157 151//157
f 146//156 145//156 139//156
f 146//156 147//156 145//156
f 147//158 141//158 145//158
f 145//159 148//159 139//159
f 145//160 149//160 148//160
f 149//161 140//161 148//161
f 150//154 143//154 141//154
f 150//154 152//154 143//154
f 152//162 142//162 143//162
f 151//163 143//163 142//163
f 151//164 149//164 143//164
f 149//164 141//164 143//164
f 144//152 147//152 138//152
f 144//152 150//152 147//152
f 150//152 141//152 147//152
f 152//165 137//165 144//165
f 144//165 138//165 146//165
f 146//166 139//166 148//166
f 148//167 140//167 151//167
f 151//168 142//168 152//168
f 152//165 144//165 151//165
f 144//165 146//165 151//165
o Cylinder.004_Cylinder.007
v 0.546290 -0.121134 0.570261
v 0.181226 0.725423 0.423056
v 0.406222 -0.147921 0.554365
v 0.061049 0.668873 0.393091
v 0.376705 -0.159343 0.423338
v 0.040597 0.638633 0.274237
v 0.492176 -0.142075 0.330044
v 0.140322 0.664945 0.185349
v 0.615459 -0.117214 0.372408
v 0.260499 0.721495 0.215315
v 0.640056 -0.107696 0.481597
v 0.280952 0.751734 0.334168
vn -0.1335 0.1136 0.9845
vn -0.9111 -0.3387 0.2348
vn -0.5486 -0.3733 -0.7481
vn 0.3313 -0.0364 -0.9428
vn -0.3861 0.9077 -0.1645
vn 0.9106 0.3402 -0.2348
vn 0.6083 0.3742 0.7000
vn 0.1828 -0.9821 0.0444
vn -0.2738 0.0737 0.9590
vn -0.9095 -0.3378 0.2424
vn -0.5601 -0.3740 -0.7391
vn 0.2664 -0.0564 -0.9622
vn 0.9089 0.3392 -0.2427
vn 0.5615 0.3708 0.7397
usemtl None

f 154//169 155//169 153//169
f 156//170 157//170 155//170
f 157//171 160//171 159//171
f 159//172 162//172 161//172
f 154//173 162//173 158//173
f 161//174 164//174 163//174
f 164//175 153//175 163//175
f 163//176 157//176 161//176
f 154//177 156//177 155//177
f 156//178 158//178 157//178
f 157//179 158//179 160//179
f 159//180 160//180 162//180
f 158//173 156//173 154//173
f 154//173 164//173 162//173
f 162//173 160//173 158//173
f 161//181 162//181 164//181
f 164//182 154//182 153//182
f 163//176 153//176 157//176
f 153//176 155//176 157//176
f 157//176 159//176 161//176
o Cone.005_Cone.007
v 0.062413 0.668534 0.394184
v 0.040281 0.638282 0.275636
v 0.138542 0.665037 0.185263
v 0.280952 0.751734 0.334168
v 0.107819 0.808819 0.276700
v 0.181226 0.725423 0.423056
v 0.145313 0.767180 0.349530
v 0.051347 0.653408 0.334910
v 0.107819 0.808819 0.276700
v 0.089411 0.651660 0.230449
v 0.074050 0.723550 0.276168
v 0.260499 0.721495 0.215315
v 0.194444 0.780558 0.304343
v 0.085116 0.738677 0.335442
v 0.231938 0.738919 0.377173
v 0.122610 0.697038 0.408272
vn -0.9270 0.3666 0.0795
vn 0.1472 0.8894 0.4327
vn -0.4517 0.6542 0.6066
vn -0.8944 -0.4472 0.0000
vn -0.6902 0.2775 -0.6683
vn 0.3852 -0.9078 0.1657
vn 0.9653 -0.2550 0.0569
vn -0.0370 0.5306 -0.8468
vn 0.3807 0.8753 -0.2982
vn 0.3909 0.8737 -0.2896
vn -0.4664 0.6518 0.5980
vn 0.1528 0.8895 0.4306
vn 0.1531 0.8898 0.4299
vn 0.3921 -0.9062 0.1581
vn 0.3850 -0.9108 0.1489
vn 0.3828 -0.9089 0.1654
vn 0.3944 -0.9030 0.1702
usemtl None

f 165//183 178//183 172//183
f 168//184 177//184 179//184
f 165//185 180//185 178//185
f 169//186 177//186 173//186
f 166//187 175//187 174//187
f 174//188 176//188 179//188
f 174//187 173//187 167//187
f 174//187 175//187 173//187
f 175//189 169//189 173//189
f 173//190 176//190 167//190
f 173//191 177//191 176//191
f 177//192 168//192 176//192
f 178//185 171//185 169//185
f 178//185 180//185 171//185
f 180//193 170//193 171//193
f 179//194 171//194 170//194
f 179//195 177//195 171//195
f 177//195 169//195 171//195
f 172//183 175//183 166//183
f 172//183 178//183 175//183
f 178//183 169//183 175//183
f 180//196 165//196 172//196
f 172//196 166//196 174//196
f 174//197 167//197 176//197
f 176//198 168//198 179//198
f 179//199 170//199 180//199
f 180//196 172//196 179//196
f 172//196 174//196 179//196
o Cylinder.005_Cylinder.008
v 0.683373 0.072558 0.544468
v 0.783597 0.438699 0.674755
v 0.728430 0.061321 0.585072
v 0.817892 0.414915 0.715794
v 0.706309 0.058635 0.638564
v 0.795410 0.403940 0.763028
v 0.642818 0.067634 0.642537
v 0.738633 0.416749 0.769222
v 0.610187 0.077595 0.596812
v 0.704338 0.440533 0.728182
v 0.628621 0.079833 0.552236
v 0.726820 0.451508 0.680949
vn 0.6778 0.0747 -0.7314
vn 0.8725 -0.3477 0.3433
vn 0.0101 -0.3435 0.9391
vn -0.8139 0.0008 0.5810
vn 0.2418 0.9135 0.3273
vn -0.8720 0.3492 -0.3431
vn -0.0865 0.3463 -0.9341
vn -0.1462 -0.9831 -0.1098
vn 0.7770 0.0358 -0.6285
vn 0.8755 -0.3471 0.3361
vn 0.0246 -0.3446 0.9384
vn -0.7724 -0.0184 0.6348
vn -0.8752 0.3485 -0.3356
vn -0.0255 0.3413 -0.9396
usemtl None

f 182//200 183//200 181//200
f 184//201 185//201 183//201
f 185//202 188//202 187//202
f 187//203 190//203 189//203
f 182//204 190//204 186//204
f 189//205 192//205 191//205
f 192//206 181//206 191//206
f 191//207 185//207 189//207
f 182//208 184//208 183//208
f 184//209 186//209 185//209
f 185//210 186//210 188//210
f 187//211 188//211 190//211
f 186//204 184//204 182//204
f 182//204 192//204 190//204
f 190//204 188//204 186//204
f 189//212 190//212 192//212
f 192//213 182//213 181//213
f 191//207 181//207 185//207
f 181//207 183//207 185//207
f 185//207 187//207 189//207
o Cone.006_Cone.008
v 0.817679 0.414751 0.715077
v 0.795863 0.403765 0.762620
v 0.739238 0.416790 0.769691
v 0.726820 0.451508 0.680949
v 0.774043 0.477003 0.743175
v 0.783597 0.438699 0.674755
v 0.778457 0.457882 0.708891
v 0.806771 0.409258 0.738848
v 0.774043 0.477003 0.743175
v 0.767550 0.410278 0.766155
v 0.784953 0.440384 0.752897
v 0.704338 0.440533 0.728182
v 0.750144 0.464395 0.712426
v 0.795861 0.445877 0.729126
v 0.754557 0.445274 0.678142
v 0.800275 0.426757 0.694842
vn 0.8122 0.3632 0.4566
vn 0.1486 0.8717 -0.4670
vn 0.7331 0.6298 -0.2569
vn 0.0000 -1.0000 0.0000
vn 0.1865 0.3036 0.9343
vn -0.2404 -0.9137 -0.3278
vn -0.9744 -0.2247 0.0000
vn -0.4446 0.5636 0.6962
vn -0.4630 0.8864 -0.0036
vn -0.4664 0.8844 -0.0165
vn 0.7401 0.6277 -0.2413
vn 0.1428 0.8719 -0.4685
vn 0.1421 0.8722 -0.4681
vn -0.2504 -0.9118 -0.3256
vn -0.2499 -0.9160 -0.3138
vn -0.2386 -0.9147 -0.3261
vn -0.2451 -0.9091 -0.3369
usemtl None

f 193//214 206//214 200//214
f 196//215 205//215 207//215
f 193//216 208//216 206//216
f 197//217 205//217 201//217
f 194//218 203//218 202//218
f 202//219 204//219 207//219
f 202//218 201//218 195//218
f 202//218 203//218 201//218
f 203//220 197//220 201//220
f 201//221 204//221 195//221
f 201//222 205//222 204//222
f 205//223 196//223 204//223
f 206//216 199//216 197//216
f 206//216 208//216 199//216
f 208//224 198//224 199//224
f 207//225 199//225 198//225
f 207//226 205//226 199//226
f 205//226 197//226 199//226
f 200//214 203//214 194//214
f 200//214 206//214 203//214
f 206//214 197//214 203//214
f 208//227 193//227 200//227
f 200//227 194//227 202//227
f 202//228 195//228 204//228
f 204//229 196//229 207//229
f 207//230 198//230 208//230
f 208//227 200//227 207//227
f 200//227 202//227 207//227
